<svg xmlns="http://www.w3.org/2000/svg" xmlns:xlink="http://www.w3.org/1999/xlink" width="500" zoomAndPan="magnify" viewBox="0 0 375 374.999991" height="500" preserveAspectRatio="xMidYMid meet" version="1.0"><defs><g/><clipPath id="9a610a96fb"><path d="M 51 93 L 328 93 L 328 245.691406 L 51 245.691406 Z M 51 93 " clip-rule="nonzero"/></clipPath></defs><g clip-path="url(#9a610a96fb)"><path fill="#000000" d="M 189.578125 160.15625 L 314.425781 224.167969 C 319.007812 226.519531 319.15625 231.515625 314.828125 234.347656 L 314.824219 234.339844 C 313.125 235.355469 311.28125 235.84375 309.296875 235.804688 L 69.855469 235.804688 C 61.304688 235.804688 58.117188 227.558594 64.730469 224.167969 Z M 205.328125 116.746094 C 205.351562 123.160156 215.15625 123.242188 215.117188 116.617188 C 215.042969 102.605469 200.296875 92.671875 189.597656 93.308594 C 177.992188 93.515625 169.960938 99.902344 166.019531 108.210938 C 158.933594 123.152344 165.753906 142.402344 184.664062 146.183594 L 184.664062 151.675781 L 60.273438 215.453125 C 44.425781 223.578125 51.085938 245.632812 69.855469 245.632812 L 309.296875 245.632812 C 311.195312 245.648438 313.058594 245.398438 314.882812 244.890625 C 316.710938 244.378906 318.433594 243.625 320.046875 242.628906 L 320.042969 242.621094 C 330.566406 236.011719 330.511719 221.417969 318.878906 215.453125 C 277.417969 194.199219 235.957031 172.941406 194.492188 151.679688 L 194.492188 141.894531 L 194.480469 141.894531 C 194.480469 141.585938 194.453125 141.277344 194.394531 140.976562 C 194.335938 140.671875 194.25 140.378906 194.140625 140.09375 C 194.027344 139.804688 193.886719 139.53125 193.722656 139.269531 C 193.558594 139.011719 193.371094 138.769531 193.160156 138.542969 C 192.949219 138.316406 192.71875 138.113281 192.46875 137.933594 C 192.222656 137.75 191.957031 137.59375 191.679688 137.460938 C 191.402344 137.328125 191.113281 137.222656 190.8125 137.144531 C 190.515625 137.066406 190.210938 137.019531 189.90625 136.996094 C 165.917969 135.390625 169.011719 103.117188 190.097656 103.117188 C 196.609375 103.117188 205.289062 108.992188 205.328125 116.746094 Z M 205.328125 116.746094 " fill-opacity="1" fill-rule="nonzero"/></g><path stroke-linecap="butt" transform="matrix(0.81651, 0, 0, 0.81651, 26.043006, 153.750357)" fill="none" stroke-linejoin="miter" d="M 144.220896 37.789028 C 144.890668 39.879672 145.397781 41.487123 145.742234 42.620951 C 146.081904 43.740426 146.359381 44.673322 146.569881 45.419639 C 146.775596 46.146819 147.0148 46.988818 147.282709 47.945634 C 147.569754 48.883314 147.957265 50.265914 148.445241 52.083865 L 148.894945 54.007066 C 148.952354 53.710453 149.028899 53.394704 149.119797 53.069386 C 149.220262 52.724932 149.306376 52.394831 149.363785 52.083865 C 149.856545 50.265914 150.234488 48.883314 150.50718 47.945634 C 150.775089 46.988818 151.028645 46.146819 151.267849 45.419639 C 151.521406 44.673322 151.808451 43.740426 152.138552 42.620951 C 152.483006 41.487123 152.95663 39.879672 153.568993 37.789028 C 154.793718 33.823024 156.439442 30.943006 158.51095 29.153759 C 160.601594 27.350161 163.137157 26.187629 166.117641 25.666164 C 169.11726 25.144699 172.509174 24.881574 176.293383 24.881574 L 178.690209 24.881574 L 178.690209 86.998097 L 158.601847 86.998097 L 158.601847 85.256691 C 158.601847 82.017868 158.893676 79.381838 159.47255 77.339035 C 160.056208 75.296232 160.816877 73.573963 161.754558 72.172226 C 162.711374 70.751354 163.783008 69.402243 164.979029 68.120109 C 166.170265 66.837975 167.361502 65.364478 168.557522 63.690049 C 169.748759 62.006052 170.873018 59.867567 171.935084 57.274595 C 173.006719 54.676838 173.91091 51.394958 174.638091 47.428953 C 175.370055 43.448597 175.862816 38.497072 176.116372 32.579162 C 175.685805 33.980898 175.312646 35.186487 174.996897 36.200713 C 174.700284 37.200586 174.37975 38.205243 174.035297 39.219468 C 173.709979 40.233694 173.341605 41.444067 172.939742 42.845803 C 172.552231 44.247539 172.021198 46.04157 171.351426 48.237463 C 170.619462 50.739538 169.576532 52.777557 168.222637 54.341952 C 166.87831 55.891995 165.409596 57.159777 163.811713 58.145298 C 162.232966 59.116466 160.630298 60.015874 159.00371 60.853088 C 157.396259 61.671166 155.917977 62.604062 154.578434 63.646992 C 153.234107 64.67557 152.152905 65.991192 151.334827 67.584292 C 150.511964 69.163039 150.100533 71.23933 150.100533 73.803599 L 147.79939 73.803599 C 147.79939 71.23933 147.387959 69.163039 146.569881 67.584292 C 145.747019 65.991192 144.661032 64.67557 143.302353 63.646992 C 141.958025 62.604062 140.47496 61.671166 138.853156 60.853088 C 137.24092 60.015874 135.638253 59.116466 134.040369 58.145298 C 132.461622 57.159777 131.01683 55.891995 129.701207 54.341952 C 128.390368 52.777557 127.33787 50.739538 126.548497 48.237463 C 125.878725 45.984161 125.323772 44.156641 124.893204 42.754905 C 124.462637 41.338817 124.075126 40.133228 123.730672 39.133355 C 123.400571 38.11913 123.080037 37.095336 122.769072 36.066758 C 122.472459 35.023828 122.084948 33.770399 121.60654 32.311254 C 121.845744 38.291356 122.328936 43.285938 123.060901 47.294999 C 123.788081 51.294492 124.706625 54.590724 125.811748 57.183697 C 126.912087 59.77667 128.060267 61.919938 129.256287 63.603935 C 130.447524 65.27358 131.633976 66.766214 132.81086 68.077052 C 134.006881 69.387891 135.088083 70.751354 136.054468 72.172226 C 137.039989 73.573963 137.824578 75.296232 138.403452 77.339035 C 138.98711 79.381838 139.274155 82.017868 139.274155 85.256691 L 139.274155 86.998097 L 119.209715 86.998097 L 119.209715 24.881574 C 122.386345 24.881574 125.304635 24.972472 127.959801 25.154267 C 130.629319 25.331278 133.011792 25.809686 135.116788 26.584707 C 137.217 27.345376 139.030167 28.613158 140.551505 30.388053 C 142.087196 32.143811 143.311921 34.612397 144.220896 37.789028 Z M 209.542755 86.998097 L 182.431361 86.998097 C 182.431361 83.706649 182.919337 80.252541 183.885722 76.645343 C 184.871243 73.033361 186.139024 69.464436 187.689067 65.928999 C 189.253462 62.37921 190.90397 59.054273 192.631024 55.954188 C 194.377214 52.834966 196.018154 50.112824 197.553845 47.78776 C 198.582422 46.19466 199.706682 44.606345 200.931407 43.022814 C 202.156132 41.429714 203.347368 39.898808 204.5099 38.439663 C 203.347368 34.593261 202.213541 31.689323 201.108418 29.737418 C 200.022431 27.785512 198.434116 26.809559 196.348256 26.809559 L 196.348256 24.412734 C 200.998384 24.412734 205.079206 25.025097 208.581154 26.249822 C 212.102238 27.469763 215.125778 29.09635 217.661342 31.124801 C 220.196906 33.1389 222.287549 35.396987 223.92849 37.903846 C 225.583782 40.391569 226.832428 42.927132 227.683994 45.505752 C 229.6359 51.366253 231.257704 56.954061 232.539838 62.259608 C 233.821972 67.569939 235.376798 72.36359 237.213886 76.645343 C 238.376418 79.26702 239.950381 80.721381 241.930991 81.003642 C 243.916385 81.271551 245.638655 80.64962 247.0978 79.128282 L 248.666979 80.759654 C 246.829891 83.338274 244.586157 85.137089 241.930991 86.151315 C 239.275825 87.151188 236.788103 87.648732 234.463039 87.648732 C 231.104613 87.648732 228.061937 86.821086 225.33501 85.165794 C 222.622435 83.510501 220.316508 81.357664 218.422011 78.702499 C 216.527515 76.047333 215.068369 73.21994 214.039792 70.225105 L 200.395589 70.225105 C 201.424167 73.53569 202.744574 76.659696 204.352025 79.597122 C 205.978613 82.520196 207.710451 84.988783 209.542755 86.998097 Z M 213.303043 68.033995 C 211.958716 63.828787 210.633525 59.346102 209.317903 54.590724 C 208.007064 49.81621 206.681873 45.290469 205.337546 41.008715 C 204.787377 41.802873 204.232423 42.563542 203.682254 43.290722 C 203.132084 44.022687 202.577131 44.821629 202.026961 45.687548 C 199.955454 48.801985 198.821626 52.327854 198.625479 56.265153 C 198.448468 60.202453 198.850331 64.1254 199.835852 68.033995 Z M 287.236249 47.519851 C 284.968594 47.519851 282.930575 46.998386 281.126976 45.955456 C 279.33773 44.912526 277.677653 43.596904 276.141963 42.018156 C 274.620624 40.420273 273.204536 38.788901 271.888914 37.119256 C 270.578075 35.435259 269.281589 33.966546 267.999455 32.713117 C 266.717321 31.459687 265.401698 30.641609 264.062155 30.254098 C 262.717828 29.847451 261.277819 30.134496 259.742129 31.100881 C 257.967234 32.206004 257.053475 34.315784 256.991282 37.430222 C 256.933873 40.549443 257.646701 44.261891 259.139335 48.572349 C 260.64632 52.868455 262.799157 57.308083 265.60263 61.900802 C 268.659658 66.718373 271.836289 70.698729 275.132521 73.846655 C 278.428754 76.994581 281.547975 78.90343 284.485402 79.573202 C 287.226681 80.242973 289.723972 80.142507 291.977275 79.262236 C 294.24493 78.367613 296.263812 76.994581 298.038707 75.143142 C 299.813601 73.282134 301.25361 71.272819 302.353949 69.12955 L 304.191036 70.134207 C 302.535744 73.564394 300.191544 76.607071 297.168004 79.262236 C 294.154032 81.912618 290.75255 83.979341 286.968341 85.457623 C 283.179348 86.916768 279.23248 87.648732 275.132521 87.648732 C 270.869904 87.648732 266.856059 86.821086 263.100555 85.165794 C 259.340266 83.510501 256.039249 81.238062 253.187936 78.343693 C 250.35576 75.434971 248.126377 72.071761 246.499789 68.254063 C 244.892338 64.436366 244.088612 60.331623 244.088612 55.930267 C 244.088612 51.548048 244.892338 47.443306 246.499789 43.630392 C 248.126377 39.812695 250.35576 36.449485 253.187936 33.540763 C 256.039249 30.632041 259.340266 28.373954 263.100555 26.761718 C 266.856059 25.13513 270.869904 24.326621 275.132521 24.326621 C 277.457585 24.326621 279.57215 24.680643 281.461862 25.398255 C 283.356359 26.096731 285.09298 26.924377 286.676512 27.881194 C 288.269611 28.818874 289.738324 29.641736 291.082651 30.340212 C 292.422194 31.043472 293.675624 31.39271 294.838156 31.39271 C 297.091459 31.39271 298.56974 30.7947 299.268216 29.603463 C 299.985828 28.412227 300.344634 26.809559 300.344634 24.795461 L 302.353949 24.795461 C 302.712755 27.297536 302.751028 29.88094 302.468767 32.531322 C 302.200858 35.186487 301.51195 37.650289 300.411612 39.91316 C 299.320841 42.166463 297.703821 43.998767 295.555768 45.419639 C 293.422067 46.821375 290.6473 47.519851 287.236249 47.519851 Z M 287.236249 47.519851 " stroke="#e7e7e7" stroke-width="10.078552" stroke-opacity="1" stroke-miterlimit="4"/><g fill="#000000" fill-opacity="1"><g transform="translate(121.663958, 224.78671)"><g><path d="M 22.140625 -40.171875 C 22.691406 -38.472656 23.101562 -37.160156 23.375 -36.234375 C 23.65625 -35.316406 23.878906 -34.554688 24.046875 -33.953125 C 24.222656 -33.359375 24.421875 -32.675781 24.640625 -31.90625 C 24.867188 -31.132812 25.179688 -30 25.578125 -28.5 L 25.953125 -26.9375 C 26.003906 -27.1875 26.066406 -27.445312 26.140625 -27.71875 C 26.222656 -27.988281 26.285156 -28.25 26.328125 -28.5 C 26.734375 -30 27.046875 -31.132812 27.265625 -31.90625 C 27.492188 -32.675781 27.707031 -33.359375 27.90625 -33.953125 C 28.101562 -34.554688 28.335938 -35.316406 28.609375 -36.234375 C 28.890625 -37.160156 29.28125 -38.472656 29.78125 -40.171875 C 30.769531 -43.410156 32.113281 -45.765625 33.8125 -47.234375 C 35.507812 -48.710938 37.578125 -49.660156 40.015625 -50.078125 C 42.460938 -50.503906 45.234375 -50.71875 48.328125 -50.71875 L 50.28125 -50.71875 L 50.28125 0 L 33.890625 0 L 33.890625 -1.421875 C 33.890625 -4.066406 34.125 -6.222656 34.59375 -7.890625 C 35.070312 -9.566406 35.695312 -10.976562 36.46875 -12.125 C 37.238281 -13.269531 38.109375 -14.363281 39.078125 -15.40625 C 40.054688 -16.457031 41.03125 -17.664062 42 -19.03125 C 42.976562 -20.40625 43.898438 -22.148438 44.765625 -24.265625 C 45.640625 -26.390625 46.375 -29.070312 46.96875 -32.3125 C 47.570312 -35.5625 47.972656 -39.601562 48.171875 -44.4375 C 47.828125 -43.289062 47.53125 -42.304688 47.28125 -41.484375 C 47.03125 -40.660156 46.765625 -39.835938 46.484375 -39.015625 C 46.210938 -38.191406 45.914062 -37.207031 45.59375 -36.0625 C 45.269531 -34.914062 44.832031 -33.441406 44.28125 -31.640625 C 43.6875 -29.597656 42.835938 -27.941406 41.734375 -26.671875 C 40.640625 -25.398438 39.441406 -24.363281 38.140625 -23.5625 C 36.847656 -22.769531 35.539062 -22.035156 34.21875 -21.359375 C 32.90625 -20.679688 31.695312 -19.921875 30.59375 -19.078125 C 29.5 -18.234375 28.613281 -17.160156 27.9375 -15.859375 C 27.269531 -14.566406 26.9375 -12.867188 26.9375 -10.765625 L 25.0625 -10.765625 C 25.0625 -12.867188 24.722656 -14.566406 24.046875 -15.859375 C 23.378906 -17.160156 22.492188 -18.234375 21.390625 -19.078125 C 20.296875 -19.921875 19.085938 -20.679688 17.765625 -21.359375 C 16.441406 -22.035156 15.128906 -22.769531 13.828125 -23.5625 C 12.535156 -24.363281 11.351562 -25.398438 10.28125 -26.671875 C 9.207031 -27.941406 8.347656 -29.597656 7.703125 -31.640625 C 7.148438 -33.484375 6.695312 -34.976562 6.34375 -36.125 C 6 -37.28125 5.691406 -38.269531 5.421875 -39.09375 C 5.148438 -39.914062 4.890625 -40.75 4.640625 -41.59375 C 4.390625 -42.445312 4.066406 -43.46875 3.671875 -44.65625 C 3.867188 -39.769531 4.265625 -35.691406 4.859375 -32.421875 C 5.460938 -29.160156 6.210938 -26.46875 7.109375 -24.34375 C 8.003906 -22.226562 8.9375 -20.484375 9.90625 -19.109375 C 10.882812 -17.742188 11.859375 -16.523438 12.828125 -15.453125 C 13.804688 -14.378906 14.691406 -13.269531 15.484375 -12.125 C 16.285156 -10.976562 16.921875 -9.566406 17.390625 -7.890625 C 17.867188 -6.222656 18.109375 -4.066406 18.109375 -1.421875 L 18.109375 0 L 1.71875 0 L 1.71875 -50.71875 C 4.3125 -50.71875 6.691406 -50.644531 8.859375 -50.5 C 11.035156 -50.351562 12.984375 -49.96875 14.703125 -49.34375 C 16.421875 -48.71875 17.898438 -47.679688 19.140625 -46.234375 C 20.390625 -44.785156 21.390625 -42.765625 22.140625 -40.171875 Z M 22.140625 -40.171875 "/></g></g></g><g fill="#000000" fill-opacity="1"><g transform="translate(173.649989, 224.78671)"><g><path d="M 23.484375 0 L 1.34375 0 C 1.34375 -2.695312 1.738281 -5.515625 2.53125 -8.453125 C 3.332031 -11.398438 4.367188 -14.316406 5.640625 -17.203125 C 6.921875 -20.097656 8.269531 -22.816406 9.6875 -25.359375 C 11.113281 -27.898438 12.445312 -30.117188 13.6875 -32.015625 C 14.539062 -33.316406 15.460938 -34.613281 16.453125 -35.90625 C 17.453125 -37.207031 18.425781 -38.457031 19.375 -39.65625 C 18.425781 -42.789062 17.503906 -45.15625 16.609375 -46.75 C 15.710938 -48.351562 14.414062 -49.15625 12.71875 -49.15625 L 12.71875 -51.09375 C 16.507812 -51.09375 19.835938 -50.59375 22.703125 -49.59375 C 25.566406 -48.601562 28.035156 -47.285156 30.109375 -45.640625 C 32.179688 -43.992188 33.890625 -42.144531 35.234375 -40.09375 C 36.578125 -38.050781 37.597656 -35.984375 38.296875 -33.890625 C 39.898438 -29.097656 41.222656 -24.53125 42.265625 -20.1875 C 43.316406 -15.851562 44.585938 -11.941406 46.078125 -8.453125 C 47.023438 -6.304688 48.3125 -5.117188 49.9375 -4.890625 C 51.5625 -4.671875 52.972656 -5.1875 54.171875 -6.4375 L 55.4375 -5.09375 C 53.9375 -2.988281 52.101562 -1.523438 49.9375 -0.703125 C 47.769531 0.117188 45.738281 0.53125 43.84375 0.53125 C 41.09375 0.53125 38.609375 -0.140625 36.390625 -1.484375 C 34.171875 -2.835938 32.285156 -4.597656 30.734375 -6.765625 C 29.191406 -8.941406 28 -11.25 27.15625 -13.6875 L 16.015625 -13.6875 C 16.859375 -11 17.941406 -8.457031 19.265625 -6.0625 C 20.585938 -3.664062 21.992188 -1.644531 23.484375 0 Z M 26.5625 -15.484375 C 25.457031 -18.921875 24.367188 -22.582031 23.296875 -26.46875 C 22.234375 -30.363281 21.148438 -34.0625 20.046875 -37.5625 C 19.597656 -36.90625 19.148438 -36.273438 18.703125 -35.671875 C 18.253906 -35.078125 17.804688 -34.429688 17.359375 -33.734375 C 15.660156 -31.191406 14.734375 -28.3125 14.578125 -25.09375 C 14.429688 -21.882812 14.757812 -18.679688 15.5625 -15.484375 Z M 26.5625 -15.484375 "/></g></g></g><g fill="#000000" fill-opacity="1"><g transform="translate(223.990418, 224.78671)"><g><path d="M 36.578125 -32.25 C 34.734375 -32.25 33.078125 -32.671875 31.609375 -33.515625 C 30.140625 -34.359375 28.78125 -35.425781 27.53125 -36.71875 C 26.28125 -38.019531 25.117188 -39.359375 24.046875 -40.734375 C 22.972656 -42.109375 21.910156 -43.304688 20.859375 -44.328125 C 19.816406 -45.347656 18.75 -46.019531 17.65625 -46.34375 C 16.5625 -46.664062 15.390625 -46.429688 14.140625 -45.640625 C 12.691406 -44.734375 11.941406 -43.007812 11.890625 -40.46875 C 11.847656 -37.925781 12.4375 -34.894531 13.65625 -31.375 C 14.875 -27.863281 16.628906 -24.238281 18.921875 -20.5 C 21.421875 -16.5625 24.015625 -13.304688 26.703125 -10.734375 C 29.398438 -8.160156 31.945312 -6.601562 34.34375 -6.0625 C 36.582031 -5.507812 38.625 -5.59375 40.46875 -6.3125 C 42.3125 -7.039062 43.957031 -8.164062 45.40625 -9.6875 C 46.851562 -11.207031 48.023438 -12.84375 48.921875 -14.59375 L 50.421875 -13.765625 C 49.078125 -10.972656 47.171875 -8.488281 44.703125 -6.3125 C 42.234375 -4.144531 39.453125 -2.460938 36.359375 -1.265625 C 33.265625 -0.0664062 30.046875 0.53125 26.703125 0.53125 C 23.210938 0.53125 19.929688 -0.140625 16.859375 -1.484375 C 13.796875 -2.835938 11.101562 -4.695312 8.78125 -7.0625 C 6.46875 -9.4375 4.648438 -12.179688 3.328125 -15.296875 C 2.003906 -18.410156 1.34375 -21.765625 1.34375 -25.359375 C 1.34375 -28.953125 2.003906 -32.304688 3.328125 -35.421875 C 4.648438 -38.535156 6.46875 -41.273438 8.78125 -43.640625 C 11.101562 -46.015625 13.796875 -47.863281 16.859375 -49.1875 C 19.929688 -50.507812 23.210938 -51.171875 26.703125 -51.171875 C 28.597656 -51.171875 30.316406 -50.882812 31.859375 -50.3125 C 33.410156 -49.738281 34.832031 -49.0625 36.125 -48.28125 C 37.425781 -47.507812 38.625 -46.835938 39.71875 -46.265625 C 40.820312 -45.691406 41.847656 -45.40625 42.796875 -45.40625 C 44.640625 -45.40625 45.847656 -45.890625 46.421875 -46.859375 C 46.992188 -47.835938 47.28125 -49.148438 47.28125 -50.796875 L 48.921875 -50.796875 C 49.222656 -48.753906 49.257812 -46.644531 49.03125 -44.46875 C 48.8125 -42.300781 48.253906 -40.296875 47.359375 -38.453125 C 46.460938 -36.609375 45.140625 -35.113281 43.390625 -33.96875 C 41.640625 -32.820312 39.367188 -32.25 36.578125 -32.25 Z M 36.578125 -32.25 "/></g></g></g><g fill="#000000" fill-opacity="1"><g transform="translate(85.176934, 277.922413)"><g><path d="M 9.90625 0.125 C 9.800781 0.125 9.640625 0.117188 9.421875 0.109375 C 9.203125 0.0976562 8.96875 0.0820312 8.71875 0.0625 C 8.46875 0.0507812 8.226562 0.0351562 8 0.015625 C 7.78125 0.00390625 7.625 0 7.53125 0 L 5.390625 0 C 5.285156 0 5.125 0.00390625 4.90625 0.015625 C 4.6875 0.0351562 4.453125 0.0507812 4.203125 0.0625 C 3.960938 0.0820312 3.734375 0.0976562 3.515625 0.109375 C 3.296875 0.117188 3.132812 0.125 3.03125 0.125 L 2.984375 0.046875 L 3.0625 -0.796875 L 3.171875 -0.875 C 3.390625 -0.875 3.648438 -0.878906 3.953125 -0.890625 C 4.253906 -0.910156 4.46875 -0.976562 4.59375 -1.09375 C 4.71875 -1.195312 4.835938 -1.328125 4.953125 -1.484375 C 5.066406 -1.648438 5.144531 -1.941406 5.1875 -2.359375 C 5.207031 -2.460938 5.21875 -2.582031 5.21875 -2.71875 C 5.226562 -2.851562 5.238281 -3.023438 5.25 -3.234375 C 5.257812 -3.441406 5.265625 -3.691406 5.265625 -3.984375 C 5.265625 -4.273438 5.265625 -4.640625 5.265625 -5.078125 L 5.265625 -9.109375 C 5.265625 -9.910156 5.253906 -10.625 5.234375 -11.25 C 5.222656 -11.882812 5.207031 -12.359375 5.1875 -12.671875 L 4.953125 -12.671875 C 4.390625 -12.671875 3.925781 -12.664062 3.5625 -12.65625 C 3.195312 -12.65625 2.90625 -12.640625 2.6875 -12.609375 C 2.46875 -12.585938 2.300781 -12.5625 2.1875 -12.53125 C 2.082031 -12.507812 2.003906 -12.476562 1.953125 -12.4375 C 1.796875 -12.351562 1.664062 -12.234375 1.5625 -12.078125 C 1.457031 -11.921875 1.390625 -11.726562 1.359375 -11.5 L 1.28125 -11.421875 L 0.328125 -11.421875 L 0.484375 -14.359375 L 0.578125 -14.5625 L 0.703125 -14.625 C 0.816406 -14.582031 1.070312 -14.539062 1.46875 -14.5 C 1.863281 -14.46875 2.296875 -14.441406 2.765625 -14.421875 C 3.234375 -14.410156 3.6875 -14.398438 4.125 -14.390625 C 4.5625 -14.390625 4.875 -14.390625 5.0625 -14.390625 L 7.828125 -14.390625 C 8.023438 -14.390625 8.335938 -14.390625 8.765625 -14.390625 C 9.203125 -14.398438 9.65625 -14.410156 10.125 -14.421875 C 10.59375 -14.441406 11.023438 -14.46875 11.421875 -14.5 C 11.816406 -14.539062 12.070312 -14.582031 12.1875 -14.625 L 12.3125 -14.5625 L 12.40625 -14.359375 L 12.578125 -11.421875 L 11.609375 -11.421875 L 11.53125 -11.5 C 11.5 -11.726562 11.429688 -11.921875 11.328125 -12.078125 C 11.222656 -12.234375 11.09375 -12.351562 10.9375 -12.4375 C 10.894531 -12.488281 10.816406 -12.53125 10.703125 -12.5625 C 10.585938 -12.601562 10.421875 -12.628906 10.203125 -12.640625 C 9.984375 -12.660156 9.691406 -12.671875 9.328125 -12.671875 C 8.972656 -12.671875 8.519531 -12.671875 7.96875 -12.671875 L 7.71875 -12.671875 C 7.707031 -12.316406 7.695312 -11.847656 7.6875 -11.265625 C 7.675781 -10.679688 7.671875 -9.96875 7.671875 -9.125 L 7.671875 -5.515625 C 7.671875 -4.992188 7.671875 -4.566406 7.671875 -4.234375 C 7.671875 -3.898438 7.675781 -3.625 7.6875 -3.40625 C 7.695312 -3.1875 7.703125 -3 7.703125 -2.84375 C 7.710938 -2.695312 7.726562 -2.535156 7.75 -2.359375 C 7.769531 -1.929688 7.847656 -1.632812 7.984375 -1.46875 C 8.117188 -1.3125 8.242188 -1.1875 8.359375 -1.09375 C 8.421875 -1.039062 8.503906 -1 8.609375 -0.96875 C 8.722656 -0.9375 8.84375 -0.910156 8.96875 -0.890625 C 9.101562 -0.878906 9.238281 -0.875 9.375 -0.875 C 9.519531 -0.875 9.648438 -0.875 9.765625 -0.875 L 9.875 -0.796875 L 9.9375 0.046875 Z M 9.90625 0.125 "/></g></g></g><g fill="#000000" fill-opacity="1"><g transform="translate(101.212635, 277.922413)"><g><path d="M 6.34375 0.09375 C 6.238281 0.09375 6.082031 0.0820312 5.875 0.0625 C 5.664062 0.0507812 5.441406 0.0390625 5.203125 0.03125 C 4.972656 0.0195312 4.753906 0.0078125 4.546875 0 C 4.347656 0 4.195312 0 4.09375 0 L 2.90625 0 C 2.800781 0 2.640625 0 2.421875 0 C 2.210938 0.0078125 1.992188 0.0195312 1.765625 0.03125 C 1.546875 0.0390625 1.328125 0.0507812 1.109375 0.0625 C 0.898438 0.0820312 0.742188 0.09375 0.640625 0.09375 L 0.609375 0 L 0.65625 -0.75 L 0.71875 -0.84375 C 0.945312 -0.84375 1.175781 -0.851562 1.40625 -0.875 C 1.644531 -0.894531 1.820312 -0.960938 1.9375 -1.078125 C 2.039062 -1.179688 2.113281 -1.3125 2.15625 -1.46875 C 2.195312 -1.632812 2.234375 -1.863281 2.265625 -2.15625 C 2.273438 -2.257812 2.285156 -2.363281 2.296875 -2.46875 C 2.304688 -2.570312 2.3125 -2.679688 2.3125 -2.796875 C 2.320312 -2.910156 2.328125 -3.046875 2.328125 -3.203125 C 2.328125 -3.367188 2.328125 -3.570312 2.328125 -3.8125 L 2.328125 -6.296875 C 2.328125 -6.566406 2.328125 -6.785156 2.328125 -6.953125 C 2.328125 -7.128906 2.320312 -7.273438 2.3125 -7.390625 C 2.3125 -7.503906 2.304688 -7.609375 2.296875 -7.703125 C 2.285156 -7.804688 2.273438 -7.921875 2.265625 -8.046875 C 2.234375 -8.191406 2.1875 -8.332031 2.125 -8.46875 C 2.070312 -8.601562 2.023438 -8.691406 1.984375 -8.734375 C 1.835938 -8.921875 1.648438 -9.03125 1.421875 -9.0625 C 1.203125 -9.09375 0.976562 -9.109375 0.75 -9.109375 L 0.65625 -9.203125 L 0.65625 -9.9375 L 0.75 -10.015625 L 1.875 -10.015625 C 2.207031 -10.015625 2.5625 -10.015625 2.9375 -10.015625 C 3.320312 -10.023438 3.660156 -10.050781 3.953125 -10.09375 L 4.734375 -10.203125 L 4.859375 -9.796875 C 4.828125 -9.734375 4.800781 -9.640625 4.78125 -9.515625 C 4.757812 -9.390625 4.742188 -9.253906 4.734375 -9.109375 C 4.734375 -8.972656 4.726562 -8.832031 4.71875 -8.6875 C 4.707031 -8.550781 4.703125 -8.441406 4.703125 -8.359375 C 4.703125 -8.242188 4.695312 -8.132812 4.6875 -8.03125 C 4.6875 -7.9375 4.6875 -7.828125 4.6875 -7.703125 C 4.6875 -7.585938 4.679688 -7.429688 4.671875 -7.234375 C 4.660156 -7.046875 4.65625 -6.8125 4.65625 -6.53125 L 4.65625 -4.0625 C 4.65625 -3.769531 4.660156 -3.53125 4.671875 -3.34375 C 4.679688 -3.164062 4.6875 -3.007812 4.6875 -2.875 C 4.695312 -2.75 4.707031 -2.628906 4.71875 -2.515625 C 4.726562 -2.410156 4.738281 -2.289062 4.75 -2.15625 C 4.78125 -1.84375 4.8125 -1.609375 4.84375 -1.453125 C 4.882812 -1.304688 4.960938 -1.179688 5.078125 -1.078125 C 5.203125 -0.960938 5.367188 -0.894531 5.578125 -0.875 C 5.785156 -0.851562 6 -0.84375 6.21875 -0.84375 L 6.34375 -0.71875 L 6.375 0 Z M 1.875 -13.484375 C 1.875 -13.660156 1.910156 -13.835938 1.984375 -14.015625 C 2.054688 -14.191406 2.15625 -14.347656 2.28125 -14.484375 C 2.414062 -14.628906 2.566406 -14.738281 2.734375 -14.8125 C 2.898438 -14.894531 3.082031 -14.9375 3.28125 -14.9375 C 3.644531 -14.9375 3.976562 -14.785156 4.28125 -14.484375 C 4.582031 -14.179688 4.734375 -13.847656 4.734375 -13.484375 C 4.734375 -13.296875 4.691406 -13.113281 4.609375 -12.9375 C 4.523438 -12.769531 4.410156 -12.617188 4.265625 -12.484375 C 4.128906 -12.359375 3.972656 -12.257812 3.796875 -12.1875 C 3.628906 -12.113281 3.457031 -12.078125 3.28125 -12.078125 C 2.894531 -12.078125 2.5625 -12.210938 2.28125 -12.484375 C 2.007812 -12.765625 1.875 -13.097656 1.875 -13.484375 Z M 1.875 -13.484375 "/></g></g></g><g fill="#000000" fill-opacity="1"><g transform="translate(111.067428, 277.922413)"><g><path d="M 10.3125 -5.609375 L 9.796875 -5.21875 C 9.003906 -5.21875 8.222656 -5.207031 7.453125 -5.1875 C 6.679688 -5.175781 5.890625 -5.171875 5.078125 -5.171875 L 3.28125 -5.171875 C 3.257812 -5.066406 3.25 -4.96875 3.25 -4.875 C 3.25 -4.78125 3.25 -4.6875 3.25 -4.59375 C 3.25 -4.21875 3.316406 -3.835938 3.453125 -3.453125 C 3.585938 -3.066406 3.796875 -2.722656 4.078125 -2.421875 C 4.367188 -2.128906 4.734375 -1.890625 5.171875 -1.703125 C 5.609375 -1.523438 6.144531 -1.4375 6.78125 -1.4375 C 7.226562 -1.4375 7.703125 -1.492188 8.203125 -1.609375 C 8.710938 -1.734375 9.191406 -1.898438 9.640625 -2.109375 L 10.015625 -1.953125 L 10.015625 -1.171875 L 9.796875 -0.921875 C 9.441406 -0.640625 8.921875 -0.375 8.234375 -0.125 C 7.554688 0.113281 6.820312 0.234375 6.03125 0.234375 C 5.25 0.234375 4.539062 0.109375 3.90625 -0.140625 C 3.269531 -0.398438 2.71875 -0.765625 2.25 -1.234375 C 1.789062 -1.703125 1.429688 -2.257812 1.171875 -2.90625 C 0.921875 -3.550781 0.796875 -4.269531 0.796875 -5.0625 C 0.796875 -5.863281 0.925781 -6.59375 1.1875 -7.25 C 1.445312 -7.914062 1.804688 -8.484375 2.265625 -8.953125 C 2.734375 -9.421875 3.28125 -9.785156 3.90625 -10.046875 C 4.53125 -10.316406 5.203125 -10.453125 5.921875 -10.453125 C 6.296875 -10.453125 6.722656 -10.398438 7.203125 -10.296875 C 7.679688 -10.191406 8.140625 -9.992188 8.578125 -9.703125 C 9.015625 -9.421875 9.410156 -9.019531 9.765625 -8.5 C 10.117188 -7.976562 10.363281 -7.296875 10.5 -6.453125 Z M 5.9375 -8.796875 C 5.21875 -8.796875 4.640625 -8.578125 4.203125 -8.140625 C 3.773438 -7.710938 3.503906 -7.210938 3.390625 -6.640625 L 4.484375 -6.640625 C 5.003906 -6.640625 5.507812 -6.648438 6 -6.671875 C 6.5 -6.691406 7.007812 -6.703125 7.53125 -6.703125 C 7.71875 -6.703125 7.851562 -6.757812 7.9375 -6.875 C 8.03125 -6.988281 8.078125 -7.101562 8.078125 -7.21875 C 8.078125 -7.65625 7.863281 -8.023438 7.4375 -8.328125 C 7.007812 -8.640625 6.507812 -8.796875 5.9375 -8.796875 Z M 5.9375 -8.796875 "/></g></g></g><g fill="#000000" fill-opacity="1"><g transform="translate(125.34344, 277.922413)"><g><path d="M 4.703125 -8.203125 C 5.046875 -8.847656 5.507812 -9.382812 6.09375 -9.8125 C 6.675781 -10.238281 7.363281 -10.453125 8.15625 -10.453125 C 8.613281 -10.453125 9.0625 -10.390625 9.5 -10.265625 C 9.9375 -10.148438 10.332031 -9.96875 10.6875 -9.71875 C 11.050781 -9.46875 11.351562 -9.148438 11.59375 -8.765625 C 11.84375 -8.378906 12.003906 -7.921875 12.078125 -7.390625 C 12.117188 -7.003906 12.144531 -6.597656 12.15625 -6.171875 C 12.164062 -5.753906 12.171875 -5.332031 12.171875 -4.90625 C 12.179688 -4.40625 12.1875 -3.945312 12.1875 -3.53125 C 12.1875 -3.113281 12.1875 -2.65625 12.1875 -2.15625 C 12.1875 -1.820312 12.226562 -1.566406 12.3125 -1.390625 C 12.394531 -1.222656 12.492188 -1.113281 12.609375 -1.0625 C 12.765625 -0.96875 12.929688 -0.90625 13.109375 -0.875 C 13.296875 -0.851562 13.507812 -0.84375 13.75 -0.84375 L 13.8125 -0.75 L 13.859375 0 L 13.8125 0.09375 C 13.507812 0.0625 13.171875 0.0351562 12.796875 0.015625 C 12.421875 0.00390625 12.054688 0 11.703125 0 C 11.347656 0 10.992188 0 10.640625 0 C 10.296875 0.0078125 9.96875 0.03125 9.65625 0.0625 L 9.5 -0.375 C 9.539062 -0.5625 9.582031 -0.84375 9.625 -1.21875 C 9.664062 -1.601562 9.691406 -1.914062 9.703125 -2.15625 C 9.734375 -2.707031 9.753906 -3.222656 9.765625 -3.703125 C 9.785156 -4.191406 9.796875 -4.628906 9.796875 -5.015625 C 9.796875 -5.347656 9.785156 -5.710938 9.765625 -6.109375 C 9.753906 -6.503906 9.703125 -6.851562 9.609375 -7.15625 C 9.492188 -7.625 9.253906 -7.96875 8.890625 -8.1875 C 8.535156 -8.414062 8.125 -8.53125 7.65625 -8.53125 C 7.21875 -8.53125 6.8125 -8.445312 6.4375 -8.28125 C 6.070312 -8.125 5.757812 -7.929688 5.5 -7.703125 C 5.25 -7.484375 5.050781 -7.25 4.90625 -7 C 4.757812 -6.75 4.6875 -6.53125 4.6875 -6.34375 L 4.6875 -4.0625 C 4.6875 -3.769531 4.6875 -3.53125 4.6875 -3.34375 C 4.6875 -3.164062 4.6875 -3.007812 4.6875 -2.875 C 4.695312 -2.75 4.707031 -2.628906 4.71875 -2.515625 C 4.726562 -2.410156 4.738281 -2.289062 4.75 -2.15625 C 4.78125 -1.84375 4.84375 -1.609375 4.9375 -1.453125 C 5.03125 -1.304688 5.140625 -1.179688 5.265625 -1.078125 C 5.378906 -0.960938 5.515625 -0.894531 5.671875 -0.875 C 5.835938 -0.851562 6.03125 -0.84375 6.25 -0.84375 L 6.359375 -0.71875 L 6.40625 0 L 6.359375 0.09375 C 6.253906 0.09375 6.097656 0.0820312 5.890625 0.0625 C 5.691406 0.0507812 5.472656 0.0390625 5.234375 0.03125 C 5.003906 0.0195312 4.785156 0.0078125 4.578125 0 C 4.367188 0 4.210938 0 4.109375 0 L 2.90625 0 C 2.800781 0 2.640625 0 2.421875 0 C 2.210938 0.0078125 1.992188 0.0195312 1.765625 0.03125 C 1.546875 0.0390625 1.328125 0.0507812 1.109375 0.0625 C 0.898438 0.0820312 0.742188 0.09375 0.640625 0.09375 L 0.609375 0 L 0.65625 -0.75 L 0.71875 -0.84375 C 0.957031 -0.84375 1.164062 -0.851562 1.34375 -0.875 C 1.53125 -0.894531 1.679688 -0.960938 1.796875 -1.078125 C 1.898438 -1.179688 1.992188 -1.3125 2.078125 -1.46875 C 2.171875 -1.632812 2.234375 -1.863281 2.265625 -2.15625 C 2.273438 -2.257812 2.285156 -2.363281 2.296875 -2.46875 C 2.304688 -2.570312 2.3125 -2.679688 2.3125 -2.796875 C 2.320312 -2.910156 2.328125 -3.046875 2.328125 -3.203125 C 2.328125 -3.367188 2.328125 -3.570312 2.328125 -3.8125 L 2.328125 -6.078125 C 2.328125 -6.347656 2.328125 -6.578125 2.328125 -6.765625 C 2.328125 -6.960938 2.320312 -7.132812 2.3125 -7.28125 C 2.3125 -7.425781 2.304688 -7.554688 2.296875 -7.671875 C 2.285156 -7.796875 2.273438 -7.921875 2.265625 -8.046875 C 2.234375 -8.191406 2.1875 -8.332031 2.125 -8.46875 C 2.070312 -8.601562 2.023438 -8.691406 1.984375 -8.734375 C 1.835938 -8.921875 1.648438 -9.03125 1.421875 -9.0625 C 1.203125 -9.09375 0.976562 -9.109375 0.75 -9.109375 L 0.65625 -9.203125 L 0.65625 -9.9375 L 0.75 -10.015625 L 1.875 -10.015625 C 2.207031 -10.015625 2.566406 -10.015625 2.953125 -10.015625 C 3.347656 -10.023438 3.691406 -10.050781 3.984375 -10.09375 L 4.75 -10.203125 L 4.890625 -9.796875 C 4.765625 -9.628906 4.691406 -9.398438 4.671875 -9.109375 C 4.648438 -8.828125 4.640625 -8.539062 4.640625 -8.25 Z M 4.703125 -8.203125 "/></g></g></g><g fill="#000000" fill-opacity="1"><g transform="translate(142.522932, 277.922413)"><g><path d="M 9.09375 -0.375 C 9.09375 -0.476562 9.113281 -0.671875 9.15625 -0.953125 C 9.207031 -1.242188 9.25 -1.5 9.28125 -1.71875 L 9.265625 -1.796875 C 8.878906 -1.128906 8.347656 -0.625 7.671875 -0.28125 C 7.003906 0.0625 6.300781 0.234375 5.5625 0.234375 C 4.757812 0.234375 4.0625 0.0859375 3.46875 -0.203125 C 2.875 -0.492188 2.378906 -0.878906 1.984375 -1.359375 C 1.585938 -1.847656 1.289062 -2.40625 1.09375 -3.03125 C 0.90625 -3.664062 0.8125 -4.320312 0.8125 -5 C 0.8125 -5.976562 0.96875 -6.816406 1.28125 -7.515625 C 1.601562 -8.210938 2.003906 -8.773438 2.484375 -9.203125 C 2.972656 -9.640625 3.503906 -9.957031 4.078125 -10.15625 C 4.660156 -10.351562 5.222656 -10.453125 5.765625 -10.453125 C 6.421875 -10.453125 7.070312 -10.296875 7.71875 -9.984375 C 8.363281 -9.679688 8.894531 -9.175781 9.3125 -8.46875 L 9.34375 -8.5625 C 9.320312 -8.988281 9.3125 -9.421875 9.3125 -9.859375 C 9.3125 -10.304688 9.3125 -10.742188 9.3125 -11.171875 C 9.3125 -11.628906 9.3125 -12.007812 9.3125 -12.3125 C 9.3125 -12.613281 9.304688 -12.863281 9.296875 -13.0625 C 9.285156 -13.269531 9.273438 -13.453125 9.265625 -13.609375 C 9.265625 -13.773438 9.253906 -13.945312 9.234375 -14.125 C 9.222656 -14.269531 9.171875 -14.40625 9.078125 -14.53125 C 8.992188 -14.664062 8.929688 -14.757812 8.890625 -14.8125 C 8.679688 -14.96875 8.476562 -15.066406 8.28125 -15.109375 C 8.082031 -15.160156 7.851562 -15.1875 7.59375 -15.1875 L 7.5 -15.265625 L 7.5 -16 L 7.59375 -16.078125 L 8.84375 -16.078125 C 9.175781 -16.078125 9.53125 -16.082031 9.90625 -16.09375 C 10.28125 -16.101562 10.613281 -16.128906 10.90625 -16.171875 L 11.6875 -16.28125 L 11.8125 -15.859375 C 11.78125 -15.804688 11.753906 -15.703125 11.734375 -15.546875 C 11.710938 -15.390625 11.695312 -15.222656 11.6875 -15.046875 C 11.6875 -14.867188 11.679688 -14.695312 11.671875 -14.53125 C 11.660156 -14.375 11.65625 -14.253906 11.65625 -14.171875 C 11.65625 -13.953125 11.648438 -13.742188 11.640625 -13.546875 C 11.640625 -13.347656 11.640625 -13.117188 11.640625 -12.859375 C 11.640625 -12.597656 11.632812 -12.28125 11.625 -11.90625 C 11.613281 -11.539062 11.609375 -11.0625 11.609375 -10.46875 L 11.609375 -5.671875 C 11.609375 -5.054688 11.613281 -4.5625 11.625 -4.1875 C 11.632812 -3.8125 11.640625 -3.5 11.640625 -3.25 C 11.648438 -3 11.660156 -2.78125 11.671875 -2.59375 C 11.679688 -2.414062 11.691406 -2.195312 11.703125 -1.9375 C 11.734375 -1.675781 11.773438 -1.484375 11.828125 -1.359375 C 11.878906 -1.242188 11.957031 -1.148438 12.0625 -1.078125 C 12.175781 -0.960938 12.332031 -0.894531 12.53125 -0.875 C 12.738281 -0.851562 12.929688 -0.84375 13.109375 -0.84375 L 13.203125 -0.75 L 13.25 0 L 13.203125 0.09375 C 12.953125 0.0625 12.679688 0.0351562 12.390625 0.015625 C 12.097656 0.00390625 11.816406 0 11.546875 0 C 11.148438 0 10.753906 0 10.359375 0 C 9.960938 0.0078125 9.585938 0.03125 9.234375 0.0625 Z M 3.359375 -5.015625 C 3.359375 -4.578125 3.414062 -4.148438 3.53125 -3.734375 C 3.644531 -3.316406 3.8125 -2.941406 4.03125 -2.609375 C 4.25 -2.273438 4.53125 -2.007812 4.875 -1.8125 C 5.21875 -1.613281 5.625 -1.515625 6.09375 -1.515625 C 6.59375 -1.515625 7.035156 -1.597656 7.421875 -1.765625 C 7.816406 -1.941406 8.148438 -2.148438 8.421875 -2.390625 C 8.691406 -2.628906 8.898438 -2.878906 9.046875 -3.140625 C 9.203125 -3.410156 9.289062 -3.640625 9.3125 -3.828125 L 9.3125 -6.265625 C 9.28125 -6.460938 9.191406 -6.695312 9.046875 -6.96875 C 8.910156 -7.238281 8.710938 -7.5 8.453125 -7.75 C 8.203125 -8 7.882812 -8.210938 7.5 -8.390625 C 7.125 -8.578125 6.671875 -8.671875 6.140625 -8.671875 C 5.648438 -8.671875 5.226562 -8.5625 4.875 -8.34375 C 4.53125 -8.132812 4.242188 -7.859375 4.015625 -7.515625 C 3.785156 -7.179688 3.617188 -6.796875 3.515625 -6.359375 C 3.410156 -5.921875 3.359375 -5.472656 3.359375 -5.015625 Z M 3.359375 -5.015625 "/></g></g></g><g fill="#000000" fill-opacity="1"><g transform="translate(159.350483, 277.922413)"><g><path d="M 6.859375 -0.15625 C 6.910156 -0.289062 6.945312 -0.476562 6.96875 -0.71875 C 6.988281 -0.96875 7.019531 -1.195312 7.0625 -1.40625 L 7.046875 -1.46875 C 6.867188 -1.25 6.664062 -1.035156 6.4375 -0.828125 C 6.207031 -0.628906 5.953125 -0.445312 5.671875 -0.28125 C 5.398438 -0.125 5.101562 0 4.78125 0.09375 C 4.46875 0.1875 4.132812 0.234375 3.78125 0.234375 C 3.25 0.234375 2.785156 0.15625 2.390625 0 C 1.992188 -0.15625 1.664062 -0.363281 1.40625 -0.625 C 1.144531 -0.894531 0.941406 -1.207031 0.796875 -1.5625 C 0.660156 -1.914062 0.59375 -2.28125 0.59375 -2.65625 C 0.59375 -3.226562 0.71875 -3.726562 0.96875 -4.15625 C 1.21875 -4.582031 1.546875 -4.925781 1.953125 -5.1875 C 2.335938 -5.4375 2.785156 -5.628906 3.296875 -5.765625 C 3.804688 -5.910156 4.300781 -6.019531 4.78125 -6.09375 C 5.269531 -6.164062 5.710938 -6.210938 6.109375 -6.234375 C 6.503906 -6.253906 6.769531 -6.265625 6.90625 -6.265625 L 7.21875 -6.265625 C 7.195312 -6.722656 7.164062 -7.078125 7.125 -7.328125 C 7.082031 -7.585938 7.023438 -7.804688 6.953125 -7.984375 C 6.816406 -8.273438 6.597656 -8.484375 6.296875 -8.609375 C 6.003906 -8.734375 5.648438 -8.796875 5.234375 -8.796875 C 4.984375 -8.796875 4.710938 -8.773438 4.421875 -8.734375 C 4.140625 -8.703125 3.875 -8.632812 3.625 -8.53125 C 3.375 -8.425781 3.15625 -8.28125 2.96875 -8.09375 C 2.789062 -7.914062 2.6875 -7.679688 2.65625 -7.390625 L 2.578125 -7.328125 L 1.875 -7.328125 L 1.671875 -9.390625 L 1.734375 -9.53125 C 1.828125 -9.613281 2 -9.707031 2.25 -9.8125 C 2.5 -9.914062 2.796875 -10.015625 3.140625 -10.109375 C 3.492188 -10.203125 3.878906 -10.28125 4.296875 -10.34375 C 4.710938 -10.414062 5.132812 -10.453125 5.5625 -10.453125 C 6.132812 -10.453125 6.671875 -10.378906 7.171875 -10.234375 C 7.671875 -10.097656 8.097656 -9.890625 8.453125 -9.609375 C 8.816406 -9.335938 9.097656 -8.988281 9.296875 -8.5625 C 9.503906 -8.144531 9.609375 -7.660156 9.609375 -7.109375 C 9.609375 -6.503906 9.601562 -5.988281 9.59375 -5.5625 C 9.59375 -5.132812 9.582031 -4.738281 9.5625 -4.375 C 9.550781 -4.007812 9.539062 -3.65625 9.53125 -3.3125 C 9.53125 -2.96875 9.53125 -2.582031 9.53125 -2.15625 C 9.550781 -1.820312 9.582031 -1.578125 9.625 -1.421875 C 9.675781 -1.273438 9.753906 -1.160156 9.859375 -1.078125 C 9.972656 -0.960938 10.148438 -0.894531 10.390625 -0.875 C 10.640625 -0.851562 10.863281 -0.84375 11.0625 -0.84375 L 11.125 -0.75 L 11.171875 0 L 11.15625 0.09375 C 10.90625 0.0625 10.617188 0.0351562 10.296875 0.015625 C 9.972656 0.00390625 9.671875 0 9.390625 0 C 8.984375 0 8.570312 0 8.15625 0 C 7.75 0.0078125 7.363281 0.03125 7 0.0625 Z M 6.859375 -2.53125 C 6.910156 -2.601562 6.957031 -2.691406 7 -2.796875 C 7.050781 -2.898438 7.085938 -3.023438 7.109375 -3.171875 L 7.21875 -5.03125 L 7.015625 -5.03125 C 6.566406 -5.03125 6.117188 -5 5.671875 -4.9375 C 5.234375 -4.882812 4.835938 -4.773438 4.484375 -4.609375 C 4.128906 -4.453125 3.84375 -4.226562 3.625 -3.9375 C 3.40625 -3.644531 3.296875 -3.265625 3.296875 -2.796875 C 3.296875 -2.398438 3.394531 -2.082031 3.59375 -1.84375 C 3.789062 -1.613281 4.0625 -1.5 4.40625 -1.5 C 4.65625 -1.5 4.90625 -1.53125 5.15625 -1.59375 C 5.414062 -1.65625 5.65625 -1.738281 5.875 -1.84375 C 6.09375 -1.945312 6.289062 -2.0625 6.46875 -2.1875 C 6.644531 -2.3125 6.773438 -2.425781 6.859375 -2.53125 Z M 6.859375 -2.53125 "/></g></g></g><g fill="#000000" fill-opacity="1"><g transform="translate(173.84645, 277.922413)"><g/></g></g><g fill="#000000" fill-opacity="1"><g transform="translate(182.249503, 277.922413)"><g><path d="M 9.09375 -0.375 C 9.09375 -0.476562 9.113281 -0.671875 9.15625 -0.953125 C 9.207031 -1.242188 9.25 -1.5 9.28125 -1.71875 L 9.265625 -1.796875 C 8.878906 -1.128906 8.347656 -0.625 7.671875 -0.28125 C 7.003906 0.0625 6.300781 0.234375 5.5625 0.234375 C 4.757812 0.234375 4.0625 0.0859375 3.46875 -0.203125 C 2.875 -0.492188 2.378906 -0.878906 1.984375 -1.359375 C 1.585938 -1.847656 1.289062 -2.40625 1.09375 -3.03125 C 0.90625 -3.664062 0.8125 -4.320312 0.8125 -5 C 0.8125 -5.976562 0.96875 -6.816406 1.28125 -7.515625 C 1.601562 -8.210938 2.003906 -8.773438 2.484375 -9.203125 C 2.972656 -9.640625 3.503906 -9.957031 4.078125 -10.15625 C 4.660156 -10.351562 5.222656 -10.453125 5.765625 -10.453125 C 6.421875 -10.453125 7.070312 -10.296875 7.71875 -9.984375 C 8.363281 -9.679688 8.894531 -9.175781 9.3125 -8.46875 L 9.34375 -8.5625 C 9.320312 -8.988281 9.3125 -9.421875 9.3125 -9.859375 C 9.3125 -10.304688 9.3125 -10.742188 9.3125 -11.171875 C 9.3125 -11.628906 9.3125 -12.007812 9.3125 -12.3125 C 9.3125 -12.613281 9.304688 -12.863281 9.296875 -13.0625 C 9.285156 -13.269531 9.273438 -13.453125 9.265625 -13.609375 C 9.265625 -13.773438 9.253906 -13.945312 9.234375 -14.125 C 9.222656 -14.269531 9.171875 -14.40625 9.078125 -14.53125 C 8.992188 -14.664062 8.929688 -14.757812 8.890625 -14.8125 C 8.679688 -14.96875 8.476562 -15.066406 8.28125 -15.109375 C 8.082031 -15.160156 7.851562 -15.1875 7.59375 -15.1875 L 7.5 -15.265625 L 7.5 -16 L 7.59375 -16.078125 L 8.84375 -16.078125 C 9.175781 -16.078125 9.53125 -16.082031 9.90625 -16.09375 C 10.28125 -16.101562 10.613281 -16.128906 10.90625 -16.171875 L 11.6875 -16.28125 L 11.8125 -15.859375 C 11.78125 -15.804688 11.753906 -15.703125 11.734375 -15.546875 C 11.710938 -15.390625 11.695312 -15.222656 11.6875 -15.046875 C 11.6875 -14.867188 11.679688 -14.695312 11.671875 -14.53125 C 11.660156 -14.375 11.65625 -14.253906 11.65625 -14.171875 C 11.65625 -13.953125 11.648438 -13.742188 11.640625 -13.546875 C 11.640625 -13.347656 11.640625 -13.117188 11.640625 -12.859375 C 11.640625 -12.597656 11.632812 -12.28125 11.625 -11.90625 C 11.613281 -11.539062 11.609375 -11.0625 11.609375 -10.46875 L 11.609375 -5.671875 C 11.609375 -5.054688 11.613281 -4.5625 11.625 -4.1875 C 11.632812 -3.8125 11.640625 -3.5 11.640625 -3.25 C 11.648438 -3 11.660156 -2.78125 11.671875 -2.59375 C 11.679688 -2.414062 11.691406 -2.195312 11.703125 -1.9375 C 11.734375 -1.675781 11.773438 -1.484375 11.828125 -1.359375 C 11.878906 -1.242188 11.957031 -1.148438 12.0625 -1.078125 C 12.175781 -0.960938 12.332031 -0.894531 12.53125 -0.875 C 12.738281 -0.851562 12.929688 -0.84375 13.109375 -0.84375 L 13.203125 -0.75 L 13.25 0 L 13.203125 0.09375 C 12.953125 0.0625 12.679688 0.0351562 12.390625 0.015625 C 12.097656 0.00390625 11.816406 0 11.546875 0 C 11.148438 0 10.753906 0 10.359375 0 C 9.960938 0.0078125 9.585938 0.03125 9.234375 0.0625 Z M 3.359375 -5.015625 C 3.359375 -4.578125 3.414062 -4.148438 3.53125 -3.734375 C 3.644531 -3.316406 3.8125 -2.941406 4.03125 -2.609375 C 4.25 -2.273438 4.53125 -2.007812 4.875 -1.8125 C 5.21875 -1.613281 5.625 -1.515625 6.09375 -1.515625 C 6.59375 -1.515625 7.035156 -1.597656 7.421875 -1.765625 C 7.816406 -1.941406 8.148438 -2.148438 8.421875 -2.390625 C 8.691406 -2.628906 8.898438 -2.878906 9.046875 -3.140625 C 9.203125 -3.410156 9.289062 -3.640625 9.3125 -3.828125 L 9.3125 -6.265625 C 9.28125 -6.460938 9.191406 -6.695312 9.046875 -6.96875 C 8.910156 -7.238281 8.710938 -7.5 8.453125 -7.75 C 8.203125 -8 7.882812 -8.210938 7.5 -8.390625 C 7.125 -8.578125 6.671875 -8.671875 6.140625 -8.671875 C 5.648438 -8.671875 5.226562 -8.5625 4.875 -8.34375 C 4.53125 -8.132812 4.242188 -7.859375 4.015625 -7.515625 C 3.785156 -7.179688 3.617188 -6.796875 3.515625 -6.359375 C 3.410156 -5.921875 3.359375 -5.472656 3.359375 -5.015625 Z M 3.359375 -5.015625 "/></g></g></g><g fill="#000000" fill-opacity="1"><g transform="translate(199.077055, 277.922413)"><g><path d="M 10.3125 -5.609375 L 9.796875 -5.21875 C 9.003906 -5.21875 8.222656 -5.207031 7.453125 -5.1875 C 6.679688 -5.175781 5.890625 -5.171875 5.078125 -5.171875 L 3.28125 -5.171875 C 3.257812 -5.066406 3.25 -4.96875 3.25 -4.875 C 3.25 -4.78125 3.25 -4.6875 3.25 -4.59375 C 3.25 -4.21875 3.316406 -3.835938 3.453125 -3.453125 C 3.585938 -3.066406 3.796875 -2.722656 4.078125 -2.421875 C 4.367188 -2.128906 4.734375 -1.890625 5.171875 -1.703125 C 5.609375 -1.523438 6.144531 -1.4375 6.78125 -1.4375 C 7.226562 -1.4375 7.703125 -1.492188 8.203125 -1.609375 C 8.710938 -1.734375 9.191406 -1.898438 9.640625 -2.109375 L 10.015625 -1.953125 L 10.015625 -1.171875 L 9.796875 -0.921875 C 9.441406 -0.640625 8.921875 -0.375 8.234375 -0.125 C 7.554688 0.113281 6.820312 0.234375 6.03125 0.234375 C 5.25 0.234375 4.539062 0.109375 3.90625 -0.140625 C 3.269531 -0.398438 2.71875 -0.765625 2.25 -1.234375 C 1.789062 -1.703125 1.429688 -2.257812 1.171875 -2.90625 C 0.921875 -3.550781 0.796875 -4.269531 0.796875 -5.0625 C 0.796875 -5.863281 0.925781 -6.59375 1.1875 -7.25 C 1.445312 -7.914062 1.804688 -8.484375 2.265625 -8.953125 C 2.734375 -9.421875 3.28125 -9.785156 3.90625 -10.046875 C 4.53125 -10.316406 5.203125 -10.453125 5.921875 -10.453125 C 6.296875 -10.453125 6.722656 -10.398438 7.203125 -10.296875 C 7.679688 -10.191406 8.140625 -9.992188 8.578125 -9.703125 C 9.015625 -9.421875 9.410156 -9.019531 9.765625 -8.5 C 10.117188 -7.976562 10.363281 -7.296875 10.5 -6.453125 Z M 5.9375 -8.796875 C 5.21875 -8.796875 4.640625 -8.578125 4.203125 -8.140625 C 3.773438 -7.710938 3.503906 -7.210938 3.390625 -6.640625 L 4.484375 -6.640625 C 5.003906 -6.640625 5.507812 -6.648438 6 -6.671875 C 6.5 -6.691406 7.007812 -6.703125 7.53125 -6.703125 C 7.71875 -6.703125 7.851562 -6.757812 7.9375 -6.875 C 8.03125 -6.988281 8.078125 -7.101562 8.078125 -7.21875 C 8.078125 -7.65625 7.863281 -8.023438 7.4375 -8.328125 C 7.007812 -8.640625 6.507812 -8.796875 5.9375 -8.796875 Z M 5.9375 -8.796875 "/></g></g></g><g fill="#000000" fill-opacity="1"><g transform="translate(213.353066, 277.922413)"><g/></g></g><g fill="#000000" fill-opacity="1"><g transform="translate(221.756119, 277.922413)"><g><path d="M 0.65625 -9.9375 L 0.75 -10.015625 L 1.84375 -10.015625 C 2.1875 -10.015625 2.550781 -10.015625 2.9375 -10.015625 C 3.320312 -10.023438 3.660156 -10.050781 3.953125 -10.09375 L 4.734375 -10.203125 L 4.859375 -9.796875 C 4.828125 -9.722656 4.800781 -9.625 4.78125 -9.5 C 4.757812 -9.375 4.738281 -9.234375 4.71875 -9.078125 C 4.695312 -8.929688 4.675781 -8.789062 4.65625 -8.65625 C 4.644531 -8.519531 4.640625 -8.398438 4.640625 -8.296875 L 4.703125 -8.25 C 4.867188 -8.539062 5.054688 -8.820312 5.265625 -9.09375 C 5.484375 -9.363281 5.726562 -9.597656 6 -9.796875 C 6.28125 -9.992188 6.597656 -10.148438 6.953125 -10.265625 C 7.304688 -10.390625 7.707031 -10.453125 8.15625 -10.453125 C 8.96875 -10.453125 9.691406 -10.242188 10.328125 -9.828125 C 10.960938 -9.421875 11.421875 -8.851562 11.703125 -8.125 C 11.867188 -8.382812 12.0625 -8.648438 12.28125 -8.921875 C 12.5 -9.203125 12.753906 -9.457031 13.046875 -9.6875 C 13.335938 -9.914062 13.671875 -10.097656 14.046875 -10.234375 C 14.421875 -10.378906 14.84375 -10.453125 15.3125 -10.453125 C 15.769531 -10.453125 16.207031 -10.390625 16.625 -10.265625 C 17.050781 -10.148438 17.441406 -9.96875 17.796875 -9.71875 C 18.148438 -9.46875 18.453125 -9.148438 18.703125 -8.765625 C 18.953125 -8.390625 19.128906 -7.929688 19.234375 -7.390625 C 19.304688 -7.003906 19.34375 -6.597656 19.34375 -6.171875 C 19.351562 -5.753906 19.359375 -5.332031 19.359375 -4.90625 L 19.359375 -2.15625 C 19.359375 -1.863281 19.398438 -1.648438 19.484375 -1.515625 C 19.566406 -1.378906 19.644531 -1.253906 19.71875 -1.140625 C 19.8125 -0.992188 19.972656 -0.90625 20.203125 -0.875 C 20.429688 -0.851562 20.664062 -0.84375 20.90625 -0.84375 L 20.984375 -0.75 L 21.03125 0 L 20.984375 0.09375 C 20.722656 0.0625 20.4375 0.0351562 20.125 0.015625 C 19.820312 0.00390625 19.523438 0 19.234375 0 C 18.335938 0 17.53125 0.0195312 16.8125 0.0625 L 16.65625 -0.375 C 16.695312 -0.5625 16.734375 -0.804688 16.765625 -1.109375 C 16.804688 -1.421875 16.835938 -1.695312 16.859375 -1.9375 C 16.867188 -2.125 16.875 -2.367188 16.875 -2.671875 C 16.882812 -2.984375 16.894531 -3.296875 16.90625 -3.609375 C 16.925781 -3.929688 16.941406 -4.226562 16.953125 -4.5 C 16.960938 -4.769531 16.96875 -4.976562 16.96875 -5.125 C 16.96875 -5.414062 16.953125 -5.785156 16.921875 -6.234375 C 16.898438 -6.679688 16.851562 -7.0625 16.78125 -7.375 C 16.664062 -7.75 16.445312 -8.035156 16.125 -8.234375 C 15.800781 -8.429688 15.441406 -8.53125 15.046875 -8.53125 C 14.660156 -8.53125 14.3125 -8.472656 14 -8.359375 C 13.6875 -8.253906 13.40625 -8.117188 13.15625 -7.953125 C 12.90625 -7.796875 12.695312 -7.613281 12.53125 -7.40625 C 12.363281 -7.207031 12.234375 -7.019531 12.140625 -6.84375 C 12.171875 -6.519531 12.1875 -6.195312 12.1875 -5.875 C 12.195312 -5.550781 12.203125 -5.226562 12.203125 -4.90625 L 12.203125 -2.15625 C 12.203125 -1.84375 12.234375 -1.613281 12.296875 -1.46875 C 12.367188 -1.320312 12.460938 -1.191406 12.578125 -1.078125 C 12.710938 -0.960938 12.878906 -0.894531 13.078125 -0.875 C 13.273438 -0.851562 13.484375 -0.84375 13.703125 -0.84375 L 13.8125 -0.71875 L 13.859375 0 L 13.8125 0.09375 C 13.707031 0.09375 13.550781 0.0820312 13.34375 0.0625 C 13.144531 0.0507812 12.925781 0.0390625 12.6875 0.03125 C 12.457031 0.0195312 12.238281 0.0078125 12.03125 0 C 11.820312 0 11.671875 0 11.578125 0 L 10.390625 0 C 10.285156 0 10.125 0 9.90625 0 C 9.695312 0.0078125 9.476562 0.0195312 9.25 0.03125 C 9.019531 0.0390625 8.796875 0.0507812 8.578125 0.0625 C 8.367188 0.0820312 8.21875 0.09375 8.125 0.09375 L 8.078125 0 L 8.125 -0.75 L 8.203125 -0.84375 C 8.441406 -0.84375 8.664062 -0.851562 8.875 -0.875 C 9.09375 -0.894531 9.257812 -0.960938 9.375 -1.078125 C 9.488281 -1.179688 9.570312 -1.3125 9.625 -1.46875 C 9.675781 -1.632812 9.707031 -1.863281 9.71875 -2.15625 C 9.71875 -2.332031 9.722656 -2.5625 9.734375 -2.84375 C 9.753906 -3.132812 9.769531 -3.425781 9.78125 -3.71875 C 9.789062 -4.007812 9.796875 -4.28125 9.796875 -4.53125 C 9.804688 -4.789062 9.8125 -4.988281 9.8125 -5.125 C 9.8125 -5.269531 9.8125 -5.441406 9.8125 -5.640625 C 9.8125 -5.835938 9.800781 -6.039062 9.78125 -6.25 C 9.769531 -6.457031 9.753906 -6.65625 9.734375 -6.84375 C 9.710938 -7.03125 9.679688 -7.207031 9.640625 -7.375 C 9.503906 -7.75 9.273438 -8.035156 8.953125 -8.234375 C 8.640625 -8.429688 8.285156 -8.53125 7.890625 -8.53125 C 7.410156 -8.53125 6.972656 -8.445312 6.578125 -8.28125 C 6.179688 -8.125 5.835938 -7.925781 5.546875 -7.6875 C 5.265625 -7.457031 5.046875 -7.21875 4.890625 -6.96875 C 4.734375 -6.71875 4.65625 -6.5 4.65625 -6.3125 L 4.65625 -4.296875 C 4.65625 -3.972656 4.660156 -3.707031 4.671875 -3.5 C 4.679688 -3.289062 4.6875 -3.113281 4.6875 -2.96875 C 4.695312 -2.820312 4.707031 -2.6875 4.71875 -2.5625 C 4.726562 -2.4375 4.738281 -2.300781 4.75 -2.15625 C 4.78125 -1.84375 4.847656 -1.609375 4.953125 -1.453125 C 5.054688 -1.304688 5.1875 -1.164062 5.34375 -1.03125 C 5.457031 -0.925781 5.59375 -0.867188 5.75 -0.859375 C 5.90625 -0.847656 6.070312 -0.84375 6.25 -0.84375 L 6.359375 -0.71875 L 6.40625 0 L 6.359375 0.09375 C 6.253906 0.09375 6.09375 0.0820312 5.875 0.0625 C 5.664062 0.0507812 5.445312 0.0390625 5.21875 0.03125 C 5 0.0195312 4.78125 0.0078125 4.5625 0 C 4.351562 0 4.195312 0 4.09375 0 L 2.90625 0 C 2.800781 0 2.640625 0 2.421875 0 C 2.210938 0.0078125 1.992188 0.0195312 1.765625 0.03125 C 1.546875 0.0390625 1.328125 0.0507812 1.109375 0.0625 C 0.898438 0.0820312 0.742188 0.09375 0.640625 0.09375 L 0.609375 0 L 0.65625 -0.75 L 0.71875 -0.84375 C 0.957031 -0.84375 1.175781 -0.851562 1.375 -0.875 C 1.570312 -0.90625 1.726562 -0.976562 1.84375 -1.09375 C 1.945312 -1.195312 2.035156 -1.328125 2.109375 -1.484375 C 2.179688 -1.640625 2.234375 -1.863281 2.265625 -2.15625 C 2.273438 -2.394531 2.285156 -2.632812 2.296875 -2.875 C 2.316406 -3.113281 2.328125 -3.5 2.328125 -4.03125 L 2.328125 -5.859375 C 2.328125 -6.160156 2.328125 -6.414062 2.328125 -6.625 C 2.328125 -6.84375 2.320312 -7.03125 2.3125 -7.1875 C 2.3125 -7.351562 2.304688 -7.5 2.296875 -7.625 C 2.285156 -7.757812 2.273438 -7.898438 2.265625 -8.046875 C 2.234375 -8.191406 2.1875 -8.332031 2.125 -8.46875 C 2.070312 -8.601562 2.023438 -8.691406 1.984375 -8.734375 C 1.835938 -8.921875 1.648438 -9.03125 1.421875 -9.0625 C 1.203125 -9.09375 0.976562 -9.109375 0.75 -9.109375 L 0.65625 -9.203125 Z M 0.65625 -9.9375 "/></g></g></g><g fill="#000000" fill-opacity="1"><g transform="translate(246.084333, 277.922413)"><g><path d="M 6.1875 -10.453125 C 7.050781 -10.453125 7.816406 -10.300781 8.484375 -10 C 9.160156 -9.695312 9.726562 -9.289062 10.1875 -8.78125 C 10.65625 -8.28125 11.007812 -7.695312 11.25 -7.03125 C 11.488281 -6.375 11.609375 -5.695312 11.609375 -5 C 11.609375 -4.320312 11.5 -3.664062 11.28125 -3.03125 C 11.0625 -2.40625 10.722656 -1.847656 10.265625 -1.359375 C 9.816406 -0.878906 9.253906 -0.492188 8.578125 -0.203125 C 7.898438 0.0859375 7.113281 0.234375 6.21875 0.234375 C 5.300781 0.234375 4.492188 0.0820312 3.796875 -0.21875 C 3.109375 -0.53125 2.539062 -0.929688 2.09375 -1.421875 C 1.65625 -1.921875 1.320312 -2.488281 1.09375 -3.125 C 0.875 -3.769531 0.765625 -4.429688 0.765625 -5.109375 C 0.765625 -5.828125 0.890625 -6.507812 1.140625 -7.15625 C 1.390625 -7.800781 1.742188 -8.367188 2.203125 -8.859375 C 2.671875 -9.347656 3.238281 -9.734375 3.90625 -10.015625 C 4.570312 -10.304688 5.332031 -10.453125 6.1875 -10.453125 Z M 6.203125 -1.28125 C 6.660156 -1.28125 7.0625 -1.382812 7.40625 -1.59375 C 7.75 -1.800781 8.035156 -2.078125 8.265625 -2.421875 C 8.503906 -2.773438 8.675781 -3.175781 8.78125 -3.625 C 8.894531 -4.070312 8.953125 -4.53125 8.953125 -5 C 8.953125 -5.445312 8.890625 -5.898438 8.765625 -6.359375 C 8.640625 -6.828125 8.457031 -7.242188 8.21875 -7.609375 C 7.976562 -7.972656 7.679688 -8.269531 7.328125 -8.5 C 6.972656 -8.738281 6.566406 -8.859375 6.109375 -8.859375 C 5.640625 -8.859375 5.234375 -8.75 4.890625 -8.53125 C 4.546875 -8.3125 4.265625 -8.023438 4.046875 -7.671875 C 3.828125 -7.328125 3.660156 -6.929688 3.546875 -6.484375 C 3.441406 -6.046875 3.390625 -5.597656 3.390625 -5.140625 C 3.390625 -4.671875 3.453125 -4.207031 3.578125 -3.75 C 3.703125 -3.300781 3.882812 -2.890625 4.125 -2.515625 C 4.363281 -2.140625 4.660156 -1.835938 5.015625 -1.609375 C 5.367188 -1.390625 5.765625 -1.28125 6.203125 -1.28125 Z M 6.203125 -1.28125 "/></g></g></g><g fill="#000000" fill-opacity="1"><g transform="translate(261.592118, 277.922413)"><g><path d="M 9.09375 -0.375 C 9.09375 -0.476562 9.113281 -0.671875 9.15625 -0.953125 C 9.207031 -1.242188 9.25 -1.5 9.28125 -1.71875 L 9.265625 -1.796875 C 8.878906 -1.128906 8.347656 -0.625 7.671875 -0.28125 C 7.003906 0.0625 6.300781 0.234375 5.5625 0.234375 C 4.757812 0.234375 4.0625 0.0859375 3.46875 -0.203125 C 2.875 -0.492188 2.378906 -0.878906 1.984375 -1.359375 C 1.585938 -1.847656 1.289062 -2.40625 1.09375 -3.03125 C 0.90625 -3.664062 0.8125 -4.320312 0.8125 -5 C 0.8125 -5.976562 0.96875 -6.816406 1.28125 -7.515625 C 1.601562 -8.210938 2.003906 -8.773438 2.484375 -9.203125 C 2.972656 -9.640625 3.503906 -9.957031 4.078125 -10.15625 C 4.660156 -10.351562 5.222656 -10.453125 5.765625 -10.453125 C 6.421875 -10.453125 7.070312 -10.296875 7.71875 -9.984375 C 8.363281 -9.679688 8.894531 -9.175781 9.3125 -8.46875 L 9.34375 -8.5625 C 9.320312 -8.988281 9.3125 -9.421875 9.3125 -9.859375 C 9.3125 -10.304688 9.3125 -10.742188 9.3125 -11.171875 C 9.3125 -11.628906 9.3125 -12.007812 9.3125 -12.3125 C 9.3125 -12.613281 9.304688 -12.863281 9.296875 -13.0625 C 9.285156 -13.269531 9.273438 -13.453125 9.265625 -13.609375 C 9.265625 -13.773438 9.253906 -13.945312 9.234375 -14.125 C 9.222656 -14.269531 9.171875 -14.40625 9.078125 -14.53125 C 8.992188 -14.664062 8.929688 -14.757812 8.890625 -14.8125 C 8.679688 -14.96875 8.476562 -15.066406 8.28125 -15.109375 C 8.082031 -15.160156 7.851562 -15.1875 7.59375 -15.1875 L 7.5 -15.265625 L 7.5 -16 L 7.59375 -16.078125 L 8.84375 -16.078125 C 9.175781 -16.078125 9.53125 -16.082031 9.90625 -16.09375 C 10.28125 -16.101562 10.613281 -16.128906 10.90625 -16.171875 L 11.6875 -16.28125 L 11.8125 -15.859375 C 11.78125 -15.804688 11.753906 -15.703125 11.734375 -15.546875 C 11.710938 -15.390625 11.695312 -15.222656 11.6875 -15.046875 C 11.6875 -14.867188 11.679688 -14.695312 11.671875 -14.53125 C 11.660156 -14.375 11.65625 -14.253906 11.65625 -14.171875 C 11.65625 -13.953125 11.648438 -13.742188 11.640625 -13.546875 C 11.640625 -13.347656 11.640625 -13.117188 11.640625 -12.859375 C 11.640625 -12.597656 11.632812 -12.28125 11.625 -11.90625 C 11.613281 -11.539062 11.609375 -11.0625 11.609375 -10.46875 L 11.609375 -5.671875 C 11.609375 -5.054688 11.613281 -4.5625 11.625 -4.1875 C 11.632812 -3.8125 11.640625 -3.5 11.640625 -3.25 C 11.648438 -3 11.660156 -2.78125 11.671875 -2.59375 C 11.679688 -2.414062 11.691406 -2.195312 11.703125 -1.9375 C 11.734375 -1.675781 11.773438 -1.484375 11.828125 -1.359375 C 11.878906 -1.242188 11.957031 -1.148438 12.0625 -1.078125 C 12.175781 -0.960938 12.332031 -0.894531 12.53125 -0.875 C 12.738281 -0.851562 12.929688 -0.84375 13.109375 -0.84375 L 13.203125 -0.75 L 13.25 0 L 13.203125 0.09375 C 12.953125 0.0625 12.679688 0.0351562 12.390625 0.015625 C 12.097656 0.00390625 11.816406 0 11.546875 0 C 11.148438 0 10.753906 0 10.359375 0 C 9.960938 0.0078125 9.585938 0.03125 9.234375 0.0625 Z M 3.359375 -5.015625 C 3.359375 -4.578125 3.414062 -4.148438 3.53125 -3.734375 C 3.644531 -3.316406 3.8125 -2.941406 4.03125 -2.609375 C 4.25 -2.273438 4.53125 -2.007812 4.875 -1.8125 C 5.21875 -1.613281 5.625 -1.515625 6.09375 -1.515625 C 6.59375 -1.515625 7.035156 -1.597656 7.421875 -1.765625 C 7.816406 -1.941406 8.148438 -2.148438 8.421875 -2.390625 C 8.691406 -2.628906 8.898438 -2.878906 9.046875 -3.140625 C 9.203125 -3.410156 9.289062 -3.640625 9.3125 -3.828125 L 9.3125 -6.265625 C 9.28125 -6.460938 9.191406 -6.695312 9.046875 -6.96875 C 8.910156 -7.238281 8.710938 -7.5 8.453125 -7.75 C 8.203125 -8 7.882812 -8.210938 7.5 -8.390625 C 7.125 -8.578125 6.671875 -8.671875 6.140625 -8.671875 C 5.648438 -8.671875 5.226562 -8.5625 4.875 -8.34375 C 4.53125 -8.132812 4.242188 -7.859375 4.015625 -7.515625 C 3.785156 -7.179688 3.617188 -6.796875 3.515625 -6.359375 C 3.410156 -5.921875 3.359375 -5.472656 3.359375 -5.015625 Z M 3.359375 -5.015625 "/></g></g></g><g fill="#000000" fill-opacity="1"><g transform="translate(278.419659, 277.922413)"><g><path d="M 6.859375 -0.15625 C 6.910156 -0.289062 6.945312 -0.476562 6.96875 -0.71875 C 6.988281 -0.96875 7.019531 -1.195312 7.0625 -1.40625 L 7.046875 -1.46875 C 6.867188 -1.25 6.664062 -1.035156 6.4375 -0.828125 C 6.207031 -0.628906 5.953125 -0.445312 5.671875 -0.28125 C 5.398438 -0.125 5.101562 0 4.78125 0.09375 C 4.46875 0.1875 4.132812 0.234375 3.78125 0.234375 C 3.25 0.234375 2.785156 0.15625 2.390625 0 C 1.992188 -0.15625 1.664062 -0.363281 1.40625 -0.625 C 1.144531 -0.894531 0.941406 -1.207031 0.796875 -1.5625 C 0.660156 -1.914062 0.59375 -2.28125 0.59375 -2.65625 C 0.59375 -3.226562 0.71875 -3.726562 0.96875 -4.15625 C 1.21875 -4.582031 1.546875 -4.925781 1.953125 -5.1875 C 2.335938 -5.4375 2.785156 -5.628906 3.296875 -5.765625 C 3.804688 -5.910156 4.300781 -6.019531 4.78125 -6.09375 C 5.269531 -6.164062 5.710938 -6.210938 6.109375 -6.234375 C 6.503906 -6.253906 6.769531 -6.265625 6.90625 -6.265625 L 7.21875 -6.265625 C 7.195312 -6.722656 7.164062 -7.078125 7.125 -7.328125 C 7.082031 -7.585938 7.023438 -7.804688 6.953125 -7.984375 C 6.816406 -8.273438 6.597656 -8.484375 6.296875 -8.609375 C 6.003906 -8.734375 5.648438 -8.796875 5.234375 -8.796875 C 4.984375 -8.796875 4.710938 -8.773438 4.421875 -8.734375 C 4.140625 -8.703125 3.875 -8.632812 3.625 -8.53125 C 3.375 -8.425781 3.15625 -8.28125 2.96875 -8.09375 C 2.789062 -7.914062 2.6875 -7.679688 2.65625 -7.390625 L 2.578125 -7.328125 L 1.875 -7.328125 L 1.671875 -9.390625 L 1.734375 -9.53125 C 1.828125 -9.613281 2 -9.707031 2.25 -9.8125 C 2.5 -9.914062 2.796875 -10.015625 3.140625 -10.109375 C 3.492188 -10.203125 3.878906 -10.28125 4.296875 -10.34375 C 4.710938 -10.414062 5.132812 -10.453125 5.5625 -10.453125 C 6.132812 -10.453125 6.671875 -10.378906 7.171875 -10.234375 C 7.671875 -10.097656 8.097656 -9.890625 8.453125 -9.609375 C 8.816406 -9.335938 9.097656 -8.988281 9.296875 -8.5625 C 9.503906 -8.144531 9.609375 -7.660156 9.609375 -7.109375 C 9.609375 -6.503906 9.601562 -5.988281 9.59375 -5.5625 C 9.59375 -5.132812 9.582031 -4.738281 9.5625 -4.375 C 9.550781 -4.007812 9.539062 -3.65625 9.53125 -3.3125 C 9.53125 -2.96875 9.53125 -2.582031 9.53125 -2.15625 C 9.550781 -1.820312 9.582031 -1.578125 9.625 -1.421875 C 9.675781 -1.273438 9.753906 -1.160156 9.859375 -1.078125 C 9.972656 -0.960938 10.148438 -0.894531 10.390625 -0.875 C 10.640625 -0.851562 10.863281 -0.84375 11.0625 -0.84375 L 11.125 -0.75 L 11.171875 0 L 11.15625 0.09375 C 10.90625 0.0625 10.617188 0.0351562 10.296875 0.015625 C 9.972656 0.00390625 9.671875 0 9.390625 0 C 8.984375 0 8.570312 0 8.15625 0 C 7.75 0.0078125 7.363281 0.03125 7 0.0625 Z M 6.859375 -2.53125 C 6.910156 -2.601562 6.957031 -2.691406 7 -2.796875 C 7.050781 -2.898438 7.085938 -3.023438 7.109375 -3.171875 L 7.21875 -5.03125 L 7.015625 -5.03125 C 6.566406 -5.03125 6.117188 -5 5.671875 -4.9375 C 5.234375 -4.882812 4.835938 -4.773438 4.484375 -4.609375 C 4.128906 -4.453125 3.84375 -4.226562 3.625 -3.9375 C 3.40625 -3.644531 3.296875 -3.265625 3.296875 -2.796875 C 3.296875 -2.398438 3.394531 -2.082031 3.59375 -1.84375 C 3.789062 -1.613281 4.0625 -1.5 4.40625 -1.5 C 4.65625 -1.5 4.90625 -1.53125 5.15625 -1.59375 C 5.414062 -1.65625 5.65625 -1.738281 5.875 -1.84375 C 6.09375 -1.945312 6.289062 -2.0625 6.46875 -2.1875 C 6.644531 -2.3125 6.773438 -2.425781 6.859375 -2.53125 Z M 6.859375 -2.53125 "/></g></g></g></svg>